<svg width="154" height="38" viewBox="0 0 154 38" fill="none" xmlns="http://www.w3.org/2000/svg">
<path d="M3.648 23C3.584 23 3.544 22.96 3.528 22.88L0.216 6.392C0.2 6.328 0.232 6.296 0.312 6.296H3.024C3.088 6.296 3.128 6.328 3.144 6.392L5.112 17.384L7.032 6.392C7.048 6.328 7.088 6.296 7.152 6.296H9.84C9.92 6.296 9.952 6.328 9.936 6.392L6.672 22.88C6.656 22.96 6.616 23 6.552 23H3.648ZM11.4628 23C11.3828 23 11.3428 22.96 11.3428 22.88L11.3668 6.392C11.3668 6.328 11.3988 6.296 11.4628 6.296H14.1508C14.2148 6.296 14.2468 6.328 14.2468 6.392L14.2708 22.88C14.2708 22.96 14.2388 23 14.1748 23H11.4628ZM16.5979 23C16.4699 23 16.4059 22.944 16.4059 22.832L16.3819 6.488C16.3819 6.36 16.4459 6.296 16.5739 6.296H18.7339L22.7899 15.752L22.6699 6.488C22.6699 6.36 22.7419 6.296 22.8859 6.296H25.2619C25.3579 6.296 25.4059 6.36 25.4059 6.488L25.4299 22.856C25.4299 22.952 25.3899 23 25.3099 23H23.1979L19.0459 14.168L19.2139 22.808C19.2139 22.936 19.1419 23 18.9979 23H16.5979ZM27.6347 23C27.5547 23 27.5147 22.96 27.5147 22.88L27.5387 6.392C27.5387 6.328 27.5707 6.296 27.6347 6.296H30.3227C30.3867 6.296 30.4187 6.328 30.4187 6.392L30.4427 22.88C30.4427 22.96 30.4107 23 30.3467 23H27.6347ZM36.9698 23.24C36.0898 23.24 35.2898 23.024 34.5698 22.592C33.8658 22.144 33.3058 21.552 32.8898 20.816C32.4738 20.08 32.2658 19.256 32.2658 18.344L32.2898 10.856C32.2898 9.976 32.4898 9.176 32.8898 8.456C33.3058 7.72 33.8658 7.136 34.5698 6.704C35.2898 6.256 36.0898 6.032 36.9698 6.032C37.8498 6.032 38.6418 6.248 39.3458 6.68C40.0498 7.112 40.6098 7.696 41.0258 8.432C41.4418 9.152 41.6498 9.96 41.6498 10.856V11.96C41.6498 12.024 41.6178 12.056 41.5538 12.056H38.8658C38.8018 12.056 38.7698 12.024 38.7698 11.96V10.856C38.7698 10.328 38.5938 9.872 38.2418 9.488C37.9058 9.104 37.4818 8.912 36.9698 8.912C36.3938 8.912 35.9538 9.112 35.6498 9.512C35.3458 9.896 35.1938 10.344 35.1938 10.856V18.344C35.1938 18.936 35.3618 19.416 35.6978 19.784C36.0498 20.152 36.4738 20.336 36.9698 20.336C37.4818 20.336 37.9058 20.136 38.2418 19.736C38.5938 19.32 38.7698 18.856 38.7698 18.344V17.24C38.7698 17.176 38.8018 17.144 38.8658 17.144H41.5778C41.6418 17.144 41.6738 17.176 41.6738 17.24V18.344C41.6738 19.256 41.4578 20.08 41.0258 20.816C40.6098 21.552 40.0498 22.144 39.3458 22.592C38.6418 23.024 37.8498 23.24 36.9698 23.24ZM43.5488 23C43.4688 23 43.4288 22.96 43.4288 22.88L43.4528 6.392C43.4528 6.328 43.4848 6.296 43.5488 6.296H46.2368C46.3008 6.296 46.3328 6.328 46.3328 6.392L46.3568 22.88C46.3568 22.96 46.3248 23 46.2608 23H43.5488ZM52.8838 23.24C52.0358 23.24 51.2518 23.024 50.5318 22.592C49.8118 22.144 49.2358 21.552 48.8038 20.816C48.3878 20.08 48.1798 19.272 48.1798 18.392L48.2278 6.392C48.2278 6.328 48.2598 6.296 48.3238 6.296H51.0118C51.0758 6.296 51.1078 6.328 51.1078 6.392V18.392C51.1078 18.936 51.2758 19.4 51.6118 19.784C51.9638 20.152 52.3878 20.336 52.8838 20.336C53.3958 20.336 53.8198 20.152 54.1558 19.784C54.5078 19.4 54.6838 18.936 54.6838 18.392V6.392C54.6838 6.328 54.7158 6.296 54.7798 6.296H57.4678C57.5318 6.296 57.5638 6.328 57.5638 6.392L57.6118 18.392C57.6118 19.288 57.3958 20.104 56.9638 20.84C56.5478 21.576 55.9798 22.16 55.2598 22.592C54.5558 23.024 53.7638 23.24 52.8838 23.24ZM63.5869 23.24C62.7229 23.24 61.9309 23.024 61.2109 22.592C60.5069 22.144 59.9389 21.56 59.5069 20.84C59.0909 20.104 58.8829 19.296 58.8829 18.416V17.312C58.8829 17.232 58.9229 17.192 59.0029 17.192H61.6909C61.7549 17.192 61.7869 17.232 61.7869 17.312V18.416C61.7869 18.944 61.9629 19.4 62.3149 19.784C62.6669 20.152 63.0909 20.336 63.5869 20.336C64.0829 20.336 64.5069 20.144 64.8589 19.76C65.2109 19.376 65.3869 18.928 65.3869 18.416C65.3869 17.824 65.0029 17.312 64.2349 16.88C63.9789 16.736 63.5789 16.512 63.0349 16.208C62.4909 15.904 61.9789 15.616 61.4989 15.344C60.6189 14.832 59.9629 14.192 59.5309 13.424C59.1149 12.64 58.9069 11.76 58.9069 10.784C58.9069 9.888 59.1229 9.088 59.5549 8.384C59.9869 7.664 60.5549 7.096 61.2589 6.68C61.9789 6.264 62.7549 6.056 63.5869 6.056C64.4349 6.056 65.2109 6.272 65.9149 6.704C66.6349 7.12 67.2029 7.688 67.6189 8.408C68.0509 9.112 68.2669 9.904 68.2669 10.784V12.752C68.2669 12.816 68.2349 12.848 68.1709 12.848H65.4829C65.4189 12.848 65.3869 12.816 65.3869 12.752L65.3629 10.784C65.3629 10.224 65.1869 9.768 64.8349 9.416C64.4829 9.064 64.0669 8.888 63.5869 8.888C63.0909 8.888 62.6669 9.08 62.3149 9.464C61.9629 9.832 61.7869 10.272 61.7869 10.784C61.7869 11.312 61.8989 11.752 62.1229 12.104C62.3469 12.456 62.7549 12.792 63.3469 13.112C63.4269 13.16 63.5789 13.248 63.8029 13.376C64.0429 13.488 64.2989 13.624 64.5709 13.784C64.8429 13.928 65.0829 14.056 65.2909 14.168C65.5149 14.28 65.6509 14.352 65.6989 14.384C66.4989 14.832 67.1309 15.384 67.5949 16.04C68.0589 16.68 68.2909 17.472 68.2909 18.416C68.2909 19.328 68.0749 20.152 67.6429 20.888C67.2269 21.608 66.6589 22.184 65.9389 22.616C65.2349 23.032 64.4509 23.24 63.5869 23.24ZM75.9225 23C75.8585 23 75.8265 22.96 75.8265 22.88V9.2H72.7065C72.6265 9.2 72.5865 9.16 72.5865 9.08L72.6105 6.392C72.6105 6.328 72.6425 6.296 72.7065 6.296H81.8265C81.9065 6.296 81.9465 6.328 81.9465 6.392V9.08C81.9465 9.16 81.9145 9.2 81.8505 9.2H78.7065L78.7305 22.88C78.7305 22.96 78.6985 23 78.6345 23H75.9225ZM82.2669 23C82.2029 23 82.1709 22.968 82.1709 22.904V20.192C82.1709 20.128 82.2029 20.096 82.2669 20.096H84.9789C85.0429 20.096 85.0749 20.128 85.0749 20.192V22.904C85.0749 22.968 85.0429 23 84.9789 23H82.2669ZM90.7044 23C90.6404 23 90.6084 22.96 90.6084 22.88L90.6564 6.392C90.6564 6.328 90.6884 6.296 90.7524 6.296H95.3604C96.2724 6.296 97.0884 6.52 97.8084 6.968C98.5284 7.4 99.0964 7.976 99.5124 8.696C99.9284 9.416 100.136 10.2 100.136 11.048C100.136 11.736 99.9764 12.376 99.6564 12.968C99.3524 13.56 98.9844 14.04 98.5524 14.408C99.0164 14.872 99.3764 15.408 99.6324 16.016C99.8884 16.624 100.016 17.264 100.016 17.936C100.016 18.864 99.7924 19.712 99.3444 20.48C98.8964 21.248 98.2884 21.864 97.5204 22.328C96.7684 22.776 95.9284 23 95.0004 23H90.7044ZM93.5364 12.92H95.3604C95.9204 12.92 96.3684 12.728 96.7044 12.344C97.0564 11.944 97.2324 11.512 97.2324 11.048C97.2324 10.536 97.0484 10.096 96.6804 9.728C96.3124 9.344 95.8724 9.152 95.3604 9.152H93.5364V12.92ZM93.5124 20.072H95.0004C95.5764 20.072 96.0724 19.864 96.4884 19.448C96.9044 19.016 97.1124 18.512 97.1124 17.936C97.1124 17.36 96.9044 16.864 96.4884 16.448C96.0724 16.032 95.5764 15.824 95.0004 15.824H93.5364L93.5124 20.072ZM100.457 22.88L103.433 6.392C103.449 6.328 103.489 6.296 103.553 6.296H107.033C107.097 6.296 107.137 6.328 107.153 6.392L110.009 22.88C110.025 22.96 109.993 23 109.913 23H107.249C107.185 23 107.145 22.96 107.129 22.88L106.865 21.128H103.601L103.337 22.88C103.321 22.96 103.281 23 103.217 23H100.553C100.489 23 100.457 22.96 100.457 22.88ZM104.081 18.56H106.385L105.401 11.816L105.257 10.928L105.161 11.816L104.081 18.56ZM112.766 23C112.702 23 112.67 22.96 112.67 22.88V9.2H109.55C109.47 9.2 109.43 9.16 109.43 9.08L109.454 6.392C109.454 6.328 109.486 6.296 109.55 6.296H118.67C118.75 6.296 118.79 6.328 118.79 6.392V9.08C118.79 9.16 118.758 9.2 118.694 9.2H115.55L115.574 22.88C115.574 22.96 115.542 23 115.478 23H112.766ZM120.096 23C120.016 23 119.976 22.96 119.976 22.88L120 6.392C120 6.328 120.032 6.296 120.096 6.296H122.784C122.848 6.296 122.88 6.328 122.88 6.392L122.904 22.88C122.904 22.96 122.872 23 122.808 23H120.096ZM129.095 23.24C128.231 23.24 127.439 23.024 126.719 22.592C126.015 22.144 125.447 21.56 125.015 20.84C124.599 20.104 124.391 19.296 124.391 18.416V17.312C124.391 17.232 124.431 17.192 124.511 17.192H127.199C127.263 17.192 127.295 17.232 127.295 17.312V18.416C127.295 18.944 127.471 19.4 127.823 19.784C128.175 20.152 128.599 20.336 129.095 20.336C129.591 20.336 130.015 20.144 130.367 19.76C130.719 19.376 130.895 18.928 130.895 18.416C130.895 17.824 130.511 17.312 129.743 16.88C129.487 16.736 129.087 16.512 128.543 16.208C127.999 15.904 127.487 15.616 127.007 15.344C126.127 14.832 125.471 14.192 125.039 13.424C124.623 12.64 124.415 11.76 124.415 10.784C124.415 9.888 124.631 9.088 125.063 8.384C125.495 7.664 126.063 7.096 126.767 6.68C127.487 6.264 128.263 6.056 129.095 6.056C129.943 6.056 130.719 6.272 131.423 6.704C132.143 7.12 132.711 7.688 133.127 8.408C133.559 9.112 133.775 9.904 133.775 10.784V12.752C133.775 12.816 133.743 12.848 133.679 12.848H130.991C130.927 12.848 130.895 12.816 130.895 12.752L130.871 10.784C130.871 10.224 130.695 9.768 130.343 9.416C129.991 9.064 129.575 8.888 129.095 8.888C128.599 8.888 128.175 9.08 127.823 9.464C127.471 9.832 127.295 10.272 127.295 10.784C127.295 11.312 127.407 11.752 127.631 12.104C127.855 12.456 128.263 12.792 128.855 13.112C128.935 13.16 129.087 13.248 129.311 13.376C129.551 13.488 129.807 13.624 130.079 13.784C130.351 13.928 130.591 14.056 130.799 14.168C131.023 14.28 131.159 14.352 131.207 14.384C132.007 14.832 132.639 15.384 133.103 16.04C133.567 16.68 133.799 17.472 133.799 18.416C133.799 19.328 133.583 20.152 133.151 20.888C132.735 21.608 132.167 22.184 131.447 22.616C130.743 23.032 129.959 23.24 129.095 23.24ZM137.751 23C137.687 23 137.655 22.96 137.655 22.88V9.2H134.535C134.455 9.2 134.415 9.16 134.415 9.08L134.439 6.392C134.439 6.328 134.471 6.296 134.535 6.296H143.655C143.735 6.296 143.775 6.328 143.775 6.392V9.08C143.775 9.16 143.743 9.2 143.679 9.2H140.535L140.559 22.88C140.559 22.96 140.527 23 140.463 23H137.751ZM143.277 22.88L146.253 6.392C146.269 6.328 146.309 6.296 146.373 6.296H149.853C149.917 6.296 149.957 6.328 149.973 6.392L152.829 22.88C152.845 22.96 152.813 23 152.733 23H150.069C150.005 23 149.965 22.96 149.949 22.88L149.685 21.128H146.421L146.157 22.88C146.141 22.96 146.101 23 146.037 23H143.373C143.309 23 143.277 22.96 143.277 22.88ZM146.901 18.56H149.205L148.221 11.816L148.077 10.928L147.981 11.816L146.901 18.56Z" fill="white"/>
<rect y="33" width="51" height="5" fill="#00C2FF"/>
</svg>
